# xmcd CD database file
# Copyright (C) 1997 Ti Kan
# 
# Track frame offsets:
#     182
#     12565
#     25530
#     39542
#     52740
#     68755
#     80967
#     95057
#     108602
#     122050
#     136082
#     149450
#     162025
#     175427
#     191622
#     205430
#     220690
#     235890
#     250360
#     264860
#     279000
#     293782
# 
# Disc length: 4103 seconds
# 
# Revision: 1
# Processed by: cddbd v1.4b41PL1 Copyright (c) Steve Scherf et al.
# Submitted via: DiscPlay 4.0.4
# 
DISCID=3f100516
DTITLE=Leroy Carr - Hurry Down Sunshine
DYEAR=1900
DGENRE=
TTITLE0=Papa Wants a Cookie
TTITLE1=How Long Has That Evening Train Been Gone
TTITLE2=Midnight Hour Blues
TTITLE3=Mean Mistreater Mama
TTITLE4=Blues Before Sunrise
TTITLE5=Barrelhouse Woman No2
TTITLE6=Prison Bound Blues
TTITLE7=Good Woman Blues
TTITLE8=When the Sun Goes Down
TTITLE9=Rocks in My Bed
TTITLE10=Tight Time Blues
TTITLE11=Low Down Dog Blues
TTITLE12=Sloppy Drunk Blues
TTITLE13=Hurry Down Sunshine
TTITLE14=Carried Water for the Elephant
TTITLE15=Straight Alky Blues Part 1
TTITLE16=Straight Alky Blues Part 2
TTITLE17=Just a Rag
TTITLE18=Tired of Your Low Down Ways
TTITLE19=How Long, How Long Blues
TTITLE20=Going Back Home
TTITLE21=Six Cold Feet in the Ground
EXTD=
EXTT0=
EXTT1=
EXTT2=
EXTT3=
EXTT4=
EXTT5=
EXTT6=
EXTT7=
EXTT8=
EXTT9=
EXTT10=
EXTT11=
EXTT12=
EXTT13=
EXTT14=
EXTT15=
EXTT16=
EXTT17=
EXTT18=
EXTT19=
EXTT20=
EXTT21=
PLAYORDER=
